<?xml version="1.0" encoding="iso-8859-1"?>
<!-- Generator: Adobe Illustrator 16.0.0, SVG Export Plug-In . SVG Version: 6.00 Build 0)  -->
<!DOCTYPE svg PUBLIC "-//W3C//DTD SVG 1.1//EN" "http://www.w3.org/Graphics/SVG/1.1/DTD/svg11.dtd">
<svg version="1.1" id="Capa_1" xmlns="http://www.w3.org/2000/svg" xmlns:xlink="http://www.w3.org/1999/xlink" x="0px" y="0px"
	 width="792px" height="792px" viewBox="0 0 792 792" style="enable-background:new 0 0 792 792;" xml:space="preserve">
<g>
	<path d="M650.462,465.447H309.938c32.586-19.855,69.08-37.412,105.021-54.372c56.945-27.025,111.318-52.947,149.834-87.326h85.67
		c8.871,0,16.088-7.17,16.088-16.086c0-8.871-7.17-16.086-16.088-16.086h-56.439c0.139-0.184,0.322-0.368,0.459-0.552
		c37.965-54.602,42.33-122.164,11.721-180.718C570.583,42.192,495.206,0,409.489,0c-74.457,0-134.298,21.556-177.961,64.023
		c-6.388,6.159-6.526,16.408-0.321,22.797c6.296,6.297,16.316,6.572,22.75,0.276c37.412-36.447,89.762-54.969,155.532-54.969
		c73.721,0,138.158,35.62,168.172,93.071c25.324,48.489,21.83,102.263-9.607,147.489c-4.596,6.572-10.111,12.823-16.131,18.844
		H141.537c-8.917,0.046-16.086,7.216-16.086,16.086c0,8.87,7.17,16.086,16.086,16.086h369.986
		c-31.668,20.729-70.273,39.205-110.352,58.233c-52.075,24.589-105.619,50.281-148.317,83.465H141.537
		c-8.871,0-16.086,7.17-16.086,16.086c0,8.871,7.17,16.087,16.086,16.087h77.95c-41.181,49.086-54.74,112.374-33.644,170.285
		C214.292,746.039,296.011,792,405.444,792c2.85,0,5.654,0,8.504-0.092c68.619-1.425,124.645-20.177,166.471-55.659
		c6.801-5.745,7.582-15.902,1.838-22.612c-5.654-6.711-15.811-7.722-22.658-1.885c-36.035,30.519-85.258,46.696-146.387,48.029
		c-98.356,1.057-172.951-36.355-197.173-102.86c-20.131-55.199-1.011-117.063,48.305-159.347h386.073
		c8.869,0,16.086-7.17,16.086-16.087C666.55,472.617,659.333,465.447,650.462,465.447z"/>
</g>
<g>
</g>
<g>
</g>
<g>
</g>
<g>
</g>
<g>
</g>
<g>
</g>
<g>
</g>
<g>
</g>
<g>
</g>
<g>
</g>
<g>
</g>
<g>
</g>
<g>
</g>
<g>
</g>
<g>
</g>
</svg>
